<?xml version="1.0" encoding="utf-8"?>
<!-- Generator: Adobe Illustrator 17.0.0, SVG Export Plug-In . SVG Version: 6.00 Build 0)  -->
<!DOCTYPE svg PUBLIC "-//W3C//DTD SVG 1.1//EN" "http://www.w3.org/Graphics/SVG/1.1/DTD/svg11.dtd">
<svg version="1.1" id="Layer_1" xmlns="http://www.w3.org/2000/svg" xmlns:xlink="http://www.w3.org/1999/xlink" x="0px" y="0px"
	 width="493px" height="200px" viewBox="0 0 493 200" enable-background="new 0 0 493 200" xml:space="preserve">
<g id="PL_x5F_Reading_1_">
	<defs>
		<rect id="SVGID_33_" x="0.346" y="0" width="492.308" height="200"/>
	</defs>
	<clipPath id="SVGID_2_">
		<use xlink:href="#SVGID_33_"  overflow="visible"/>
	</clipPath>
	<path clip-path="url(#SVGID_2_)" fill="#56B476" d="M492.654,92.308h-15.776C472.942,40.685,429.898,0,377.269,0
		c-47.191,0-86.644,32.722-97.161,76.69c-7.061-9.277-21.078-15.362-33.608-15.362c-12.53,0-26.548,6.085-33.609,15.362
		C202.374,32.722,162.921,0,115.731,0C63.101,0,20.058,40.685,16.121,92.308H0.346v15.385h15.775
		C20.058,159.315,63.101,200,115.731,200c55.228,0,100-44.772,100-100c0-0.112-0.015-0.225-0.015-0.338l0.015,0.128
		c0-14.423,16.346-26.157,30.769-26.157c14.423,0,30.769,11.734,30.769,26.157l0.015-0.128c0,0.112-0.015,0.225-0.015,0.338
		c0,55.228,44.771,100,100,100c52.629,0,95.673-40.685,99.609-92.308h15.776V92.308z M115.731,187.695
		c-48.348,0-87.696-39.341-87.696-87.695s39.348-87.695,87.696-87.695c48.348,0,87.695,39.341,87.695,87.695
		S164.078,187.695,115.731,187.695z M377.269,187.695c-48.348,0-87.696-39.341-87.696-87.695s39.348-87.695,87.696-87.695
		c48.348,0,87.695,39.341,87.695,87.695S425.617,187.695,377.269,187.695z"/>
</g>
</svg>
